PathFileType	4	(x/y/z)	S04_PSF_T07.trc
DataRate	CameraRate	NumFrames	NumMarkers	Units	OrigDataRate	OrigDataStartFrame	OrigNumFrames
240	240	8	51	mm	240	107	427
Frame#	Time	Sternum			R.Acromium			L.Acromium			Top.Head			R.ASIS			L.ASIS			R.PSIS			L.PSIS			R.Great.Tro			L.Great.Tro			R.Iliac.Crest			L.Iliac.Crest			V.Sacral			R.Thigh.Upper.Post			R.Thigh.Lower.Ant			R.Thigh.Lower.Post			R.Thigh.Upper.Ant			R.Knee.Lat			R.Knee.Med			R.Shank.Upper.Post			R.Shank.Lower.Ant			R.Shank.Lower.Post			R.Shank.Upper.Ant			R.Ankle.Lat			R.Ankle.Med			R.Heel.Upper			R.Heel.Med			R.Heel.Lat			R.Toe.Lat			R.Toe.Med			R.Toe.Tip			L.Thigh.Upper.Post			L.Thigh.Lower.Ant			L.Thigh.Lower.Post			L.Thigh.Upper.Ant			L.Knee.Lat			L.Knee.Med			L.Shank.Upper.Post			L.Shank.Lower.Ant			L.Shank.Lower.Post			L.Shank.Upper.Ant			L.Ankle.Lat			L.Ankle.Med			L.Heel.Upper			L.Heel.Med			L.Heel.Lat			L.Toe.Lat			L.Toe.Med			L.Toe.Tip			Cervical.Spine			Back			
		X1	Y1	Z1	X2	Y2	Z2	X3	Y3	Z3	X4	Y4	Z4	X5	Y5	Z5	X6	Y6	Z6	X7	Y7	Z7	X8	Y8	Z8	X9	Y9	Z9	X10	Y10	Z10	X11	Y11	Z11	X12	Y12	Z12	X13	Y13	Z13	X14	Y14	Z14	X15	Y15	Z15	X16	Y16	Z16	X17	Y17	Z17	X18	Y18	Z18	X19	Y19	Z19	X20	Y20	Z20	X21	Y21	Z21	X22	Y22	Z22	X23	Y23	Z23	X24	Y24	Z24	X25	Y25	Z25	X26	Y26	Z26	X27	Y27	Z27	X28	Y28	Z28	X29	Y29	Z29	X30	Y30	Z30	X31	Y31	Z31	X32	Y32	Z32	X33	Y33	Z33	X34	Y34	Z34	X35	Y35	Z35	X36	Y36	Z36	X37	Y37	Z37	X38	Y38	Z38	X39	Y39	Z39	X40	Y40	Z40	X41	Y41	Z41	X42	Y42	Z42	X43	Y43	Z43	X44	Y44	Z44	X45	Y45	Z45	X46	Y46	Z46	X47	Y47	Z47	X48	Y48	Z48	X49	Y49	Z49	X50	Y50	Z50	X51	Y51	Z51	

107	0.44167	-883.96	1276.4	254.69	-1014	1506	425.97	-1008.4	1491.3	76.236	-982.57	1830.9	240.47	-908.84	997.23	385.04	-916.47	1011	135.46	-1125.5	1029.7	298.74	-1119.5	1037.3	218.2	-994.19	918.06	457.39	-1045.1	930.36	80.348	-997.31	1089.3	433.09	-1019.5	1091.5	97.529	-1144.6	992.49	258.21	-890.8	674.25	449.04	-790.8	627.46	410.21	-855.85	590.85	433.21	-825.14	731.59	431.37	-811.27	536.74	421.31	-826.04	526.13	294.14	-859.15	307.5	418.13	-778.64	238.92	387.91	-848.39	238.35	405.39	-793	307.91	408.7	-817.77	122.47	389.92	-787.43	141.35	305.93	-868.77	81.373	326.11	-848.62	55.6	297.06	-862.98	48.816	359.61	-704.3	67.22	432.83	-652.96	80.7	323.43	-602.24	108.87	378.56	-1095.5	706.85	100.07	-1032.4	598.36	108.78	-1102.5	617.77	113.97	-1031.3	687.24	90.737	-1082.9	514.18	122.65	-1079.2	506.49	245.54	-1192.1	348.52	128.82	-1135.5	252.91	133.75	-1196.1	270.82	139	-1132.5	329.37	123.77	-1178.6	106.28	161.02	-1173.5	115.21	252.51	-1255.6	76.788	204.22	-1249.8	50.019	236.77	-1251.1	50.385	175.23	-1067.7	42.784	138.64	-1037.6	43.675	255.51	-978.97	52.523	206.67	-1058.8	1552.4	253.07	-1146.6	1297.9	234.73
108	0.44583	-878.6	1275.4	255	-1008.6	1505.1	426.31	-1002.7	1490.5	76.574	-977.18	1830.1	240.92	-903.46	996.31	385.06	-911.38	1010.1	135.51	-1120.1	1028.9	299.05	-1114	1036.4	218.57	-988.73	917.2	457.59	-1040.4	929.73	80.522	-991.85	1088.3	433.28	-1014.4	1090.7	97.706	-1139.1	991.64	258.53	-885.99	673.21	449.27	-785.93	626.47	410.68	-850.98	589.81	433.52	-820.32	730.57	431.77	-805.81	536.1	421.71	-820.72	525.1	294.57	-848.29	305.96	418.85	-766.22	239.41	388.4	-835.88	237.12	406.13	-782.22	308.03	409.18	-802.33	121.97	390.58	-772.84	141.53	306.43	-852.66	79.654	327	-831.99	54.324	297.87	-845.92	47.288	360.52	-687.38	69.432	432.96	-637.03	83.897	323.47	-586.62	113.46	378.24	-1092.1	706.76	100.33	-1029.4	597.97	108.9	-1099.3	617.84	113.94	-1028	686.8	90.947	-1080.6	513.97	122.73	-1076.9	506.23	245.6	-1190.7	348.9	128.9	-1134.6	252.99	133.82	-1195	271.27	139.02	-1131.3	329.4	123.86	-1178.5	106.47	161.2	-1173.2	115.38	252.67	-1255.5	76.967	204.4	-1249.7	50.154	236.92	-1251.1	50.593	175.39	-1067.7	42.8	138.66	-1037.5	43.552	255.55	-978.89	52.343	206.69	-1053.2	1551.6	253.37	-1140.9	1297	234.89
109	0.45	-873.23	1274.4	255.31	-1003.3	1504.1	426.67	-997	1489.6	76.926	-971.8	1829.2	241.38	-898.06	995.38	385.07	-906.29	1009.1	135.58	-1114.6	1028	299.36	-1108.6	1035.5	218.93	-983.22	916.31	457.78	-1035.7	929.07	80.697	-986.41	1087.3	433.48	-1009.3	1089.8	97.888	-1133.5	990.78	258.85	-881.21	672.12	449.54	-781.12	625.41	411.17	-846.16	588.72	433.85	-815.54	729.49	432.18	-800.42	535.42	422.12	-815.49	524	295	-837.53	304.49	419.56	-753.95	239.98	388.87	-823.49	236	406.85	-771.58	308.2	409.65	-787.06	121.63	391.22	-758.45	141.86	306.9	-836.73	78.125	327.88	-815.54	53.243	298.67	-829.03	45.967	361.41	-670.68	71.81	433.02	-621.38	87.249	323.44	-571.3	118.19	377.85	-1088.7	706.64	100.58	-1026.4	597.56	109.03	-1096	617.9	113.92	-1024.6	686.34	91.151	-1078.3	513.74	122.81	-1074.6	505.95	245.68	-1189.2	349.28	128.99	-1133.7	253.08	133.88	-1193.8	271.72	139.04	-1130	329.43	123.95	-1178.5	106.66	161.38	-1172.9	115.57	252.83	-1255.4	77.16	204.59	-1249.6	50.309	237.08	-1251	50.819	175.55	-1067.6	42.817	138.68	-1037.4	43.429	255.59	-978.8	52.16	206.72	-1047.6	1550.7	253.69	-1135.2	1296.2	235.07
110	0.45417	-867.84	1273.4	255.64	-997.92	1503.1	427.05	-991.3	1488.8	77.294	-966.42	1828.3	241.85	-892.64	994.43	385.09	-901.2	1008.2	135.65	-1109.1	1027.2	299.67	-1103.2	1034.6	219.28	-977.67	915.41	457.98	-1030.9	928.39	80.872	-980.96	1086.3	433.68	-1004.2	1089	98.077	-1128	989.9	259.18	-876.47	671	449.83	-776.34	624.28	411.68	-841.4	587.58	434.21	-810.77	728.36	432.61	-795.1	534.68	422.57	-810.32	522.85	295.44	-826.87	303.11	420.27	-741.86	240.65	389.32	-811.24	234.99	407.56	-761.07	308.43	410.11	-771.99	121.47	391.84	-744.28	142.32	307.35	-820.99	76.777	328.73	-799.29	52.347	299.44	-812.31	44.844	362.29	-654.24	74.339	433	-606.02	90.742	323.36	-556.28	123.05	377.39	-1085.3	706.51	100.83	-1023.4	597.13	109.16	-1092.7	617.93	113.91	-1021.1	685.88	91.349	-1076	513.51	122.9	-1072.1	505.67	245.75	-1187.8	349.65	129.1	-1132.7	253.16	133.95	-1192.6	272.17	139.07	-1128.7	329.46	124.04	-1178.4	106.86	161.56	-1172.6	115.78	252.99	-1255.2	77.37	204.78	-1249.5	50.488	237.24	-1251	51.066	175.72	-1067.6	42.835	138.7	-1037.4	43.307	255.63	-978.71	51.974	206.75	-1042	1549.8	254.03	-1129.4	1295.3	235.26
111	0.45833	-862.43	1272.4	255.98	-992.54	1502	427.44	-985.59	1487.9	77.676	-961.03	1827.3	242.33	-887.19	993.47	385.12	-896.11	1007.1	135.72	-1103.5	1026.3	300	-1097.8	1033.8	219.64	-972.06	914.48	458.16	-1026.1	927.7	81.049	-975.53	1085.3	433.89	-999.09	1088.1	98.273	-1122.5	989.01	259.51	-871.75	669.84	450.14	-771.59	623.11	412.21	-836.68	586.4	434.6	-806.02	727.18	433.04	-789.82	533.9	423.03	-805.21	521.64	295.89	-816.32	301.8	420.98	-729.96	241.39	389.76	-799.14	234.08	408.24	-750.71	308.7	410.57	-757.13	121.46	392.43	-730.33	142.9	307.77	-805.47	75.601	329.57	-783.27	51.625	300.19	-795.81	43.908	363.15	-638.07	77.003	432.93	-590.97	94.363	323.21	-541.6	128	376.89	-1081.7	706.36	101.07	-1020.3	596.69	109.3	-1089.3	617.94	113.91	-1017.7	685.4	91.542	-1073.5	513.26	123	-1069.6	505.37	245.83	-1186.3	350.01	129.23	-1131.7	253.25	134.02	-1191.4	272.63	139.11	-1127.3	329.48	124.13	-1178.3	107.06	161.73	-1172.3	116	253.15	-1255.1	77.601	204.98	-1249.5	50.695	237.4	-1251	51.338	175.89	-1067.6	42.851	138.73	-1037.3	43.186	255.66	-978.62	51.783	206.77	-1036.5	1548.9	254.38	-1123.6	1294.4	235.47
112	0.4625	-857.01	1271.4	256.33	-987.15	1501	427.85	-979.87	1487	78.073	-955.64	1826.4	242.82	-881.72	992.5	385.15	-891.03	1006.1	135.81	-1098	1025.4	300.32	-1092.4	1032.8	220	-966.39	913.53	458.35	-1021.3	926.98	81.229	-970.09	1084.3	434.11	-993.93	1087.3	98.477	-1117	988.1	259.84	-867.03	668.65	450.49	-766.86	621.89	412.75	-831.98	585.19	435.01	-801.27	725.96	433.49	-784.59	533.1	423.51	-800.15	520.4	296.34	-805.9	300.58	421.66	-718.25	242.19	390.19	-787.22	233.27	408.9	-740.5	309.01	411.01	-742.51	121.58	393	-716.63	143.59	308.16	-790.19	74.583	330.39	-767.51	51.064	300.92	-779.56	43.147	363.98	-622.21	79.786	432.8	-576.23	98.093	323.01	-527.25	133.02	376.33	-1078.2	706.2	101.31	-1017.1	596.23	109.45	-1085.9	617.92	113.93	-1014.1	684.91	91.73	-1071	513	123.1	-1067.1	505.05	245.92	-1184.7	350.37	129.38	-1130.6	253.34	134.1	-1190.1	273.09	139.16	-1125.8	329.51	124.23	-1178.2	107.26	161.89	-1172	116.23	253.3	-1254.9	77.858	205.18	-1249.3	50.933	237.56	-1250.9	51.636	176.06	-1067.5	42.866	138.75	-1037.2	43.067	255.7	-978.53	51.587	206.79	-1030.9	1548	254.75	-1117.8	1293.5	235.68
113	0.46667	-851.57	1270.3	256.7	-981.76	1499.9	428.27	-974.15	1486.1	78.485	-950.25	1825.5	243.32	-876.22	991.52	385.18	-885.95	1005.1	135.9	-1092.4	1024.5	300.66	-1087	1031.9	220.36	-960.66	912.56	458.53	-1016.4	926.25	81.412	-964.64	1083.2	434.33	-988.76	1086.4	98.689	-1111.5	987.19	260.19	-862.31	667.43	450.86	-762.14	620.64	413.29	-827.3	583.95	435.43	-796.51	724.71	433.93	-779.38	532.26	424.01	-795.14	519.12	296.79	-795.63	299.43	422.33	-706.75	243.05	390.6	-775.48	232.56	409.53	-730.46	309.36	411.44	-728.16	121.84	393.54	-703.2	144.37	308.53	-775.18	73.71	331.18	-752.02	50.648	301.62	-763.57	42.547	364.79	-606.68	82.669	432.64	-561.82	101.91	322.74	-513.28	138.09	375.74	-1074.5	706.01	101.56	-1014	595.76	109.6	-1082.5	617.87	113.98	-1010.5	684.41	91.915	-1068.4	512.73	123.2	-1064.4	504.73	246.02	-1183.2	350.72	129.55	-1129.5	253.43	134.18	-1188.9	273.55	139.21	-1124.3	329.53	124.33	-1178	107.48	162.04	-1171.7	116.49	253.45	-1254.7	78.144	205.37	-1249.2	51.205	237.72	-1250.9	51.963	176.24	-1067.5	42.878	138.78	-1037.1	42.948	255.73	-978.43	51.387	206.82	-1025.3	1547	255.14	-1112	1292.6	235.9
114	0.47083	-846.11	1269.3	257.08	-976.36	1498.8	428.7	-968.41	1485.2	78.912	-944.86	1824.5	243.84	-870.7	990.53	385.22	-880.86	1004	136	-1086.8	1023.5	301	-1081.6	1031	220.73	-954.85	911.58	458.7	-1011.6	925.5	81.599	-959.19	1082.2	434.56	-983.56	1085.5	98.912	-1106.1	986.26	260.54	-857.58	666.21	451.25	-757.41	619.36	413.83	-822.61	582.7	435.87	-791.73	723.44	434.38	-774.19	531.4	424.52	-790.14	517.82	297.23	-785.5	298.36	422.97	-695.47	243.95	391	-763.94	231.93	410.13	-720.58	309.74	411.87	-714.1	122.21	394.05	-690.06	145.22	308.87	-760.46	72.969	331.94	-736.83	50.361	302.3	-747.9	42.093	365.56	-591.51	85.632	432.44	-547.74	105.81	322.41	-499.68	143.17	375.13	-1070.8	705.81	101.8	-1010.7	595.28	109.75	-1079.1	617.79	114.05	-1006.9	683.9	92.096	-1065.8	512.46	123.31	-1061.7	504.39	246.12	-1181.6	351.07	129.73	-1128.4	253.52	134.26	-1187.5	274.02	139.28	-1122.8	329.56	124.43	-1177.8	107.71	162.18	-1171.4	116.76	253.58	-1254.5	78.466	205.56	-1249.1	51.516	237.87	-1250.8	52.322	176.4	-1067.5	42.886	138.82	-1037.1	42.831	255.76	-978.33	51.182	206.84	-1019.8	1546.1	255.54	-1106.1	1291.6	236.13
